<?xml version="1.0" encoding="UTF-8"?>
<svg xmlns="http://www.w3.org/2000/svg" xmlns:xlink="http://www.w3.org/1999/xlink" width="50px" height="50px" viewBox="0 0 50 50" version="1.1">
<g id="surface187456">
<path style=" stroke:none;fill-rule:nonzero;fill:rgb(100%,100%,100%);fill-opacity:1;" d="M 12 3 C 7.042969 3 3 7.042969 3 12 L 3 38 C 3 42.957031 7.042969 47 12 47 L 38 47 C 42.957031 47 47 42.957031 47 38 L 47 12 C 47 7.042969 42.957031 3 38 3 Z M 12 5 L 38 5 C 41.878906 5 45 8.121094 45 12 L 45 38 C 45 41.878906 41.878906 45 38 45 L 12 45 C 8.121094 45 5 41.878906 5 38 L 5 12 C 5 8.121094 8.121094 5 12 5 Z M 38 7 C 36.90625 7 36 7.90625 36 9 L 36 12 C 36 13.09375 36.90625 14 38 14 L 41 14 C 42.09375 14 43 13.09375 43 12 L 43 9 C 43 7.90625 42.09375 7 41 7 Z M 38 9 L 41 9 L 41 12 L 38 12 Z M 25 12 C 21.332031 12 18.015625 13.539062 15.648438 16 L 8 16 C 7.449219 16 7 16.449219 7 17 L 7 37 C 7 40.300781 9.699219 43 13 43 L 37 43 C 40.300781 43 43 40.300781 43 37 L 43 17 C 43 16.449219 42.550781 16 42 16 L 34.351562 16 C 31.984375 13.539062 28.667969 12 25 12 Z M 25 14 C 31.074219 14 36 18.925781 36 25 C 36 31.074219 31.074219 36 25 36 C 18.925781 36 14 31.074219 14 25 C 14 18.925781 18.925781 14 25 14 Z M 25 16 C 24.859375 16 24.71875 16.027344 24.589844 16.082031 C 19.832031 16.3125 16 20.1875 16 25 C 16 29.960938 20.042969 34 25 34 C 29.957031 34 34 29.960938 34 25 C 34 20.1875 30.171875 16.3125 25.414062 16.082031 C 25.285156 16.027344 25.140625 16 25 16 Z M 9 18 L 14.066406 18 C 12.765625 20.023438 12 22.425781 12 25 C 12 32.160156 17.839844 38 25 38 C 32.160156 38 38 32.160156 38 25 C 38 22.425781 37.234375 20.023438 35.933594 18 L 41 18 L 41 37 C 41 39.21875 39.21875 41 37 41 L 13 41 C 10.78125 41 9 39.21875 9 37 Z M 25 18 C 28.878906 18 32 21.121094 32 25 C 32 28.878906 28.878906 32 25 32 C 21.121094 32 18 28.878906 18 25 C 18 21.121094 21.121094 18 25 18 Z M 25 18 "/>
</g>
</svg>
